<?xml version="1.0" encoding="UTF-8" standalone="no"?>
<!-- Created with Inkscape (http://www.inkscape.org/) -->

<svg
   version="1.1"
   id="svg2"
   xml:space="preserve"
   width="527.22266"
   height="173.22266"
   viewBox="0 0 527.22266 173.22266"
   xmlns="http://www.w3.org/2000/svg"
   xmlns:svg="http://www.w3.org/2000/svg"><defs
     id="defs6"><clipPath
       clipPathUnits="userSpaceOnUse"
       id="clipPath22"><path
         d="M 0,0 H 396 V 130 H 0 Z"
         id="path20" /></clipPath><clipPath
       clipPathUnits="userSpaceOnUse"
       id="clipPath34"><path
         d="M 0,0 H 92.332 V 129.918 H 0 Z"
         id="path32" /></clipPath><clipPath
       clipPathUnits="userSpaceOnUse"
       id="clipPath44"><path
         d="M 0,0 H 396 V 130 H 0 Z"
         id="path42" /></clipPath><clipPath
       clipPathUnits="userSpaceOnUse"
       id="clipPath66"><path
         d="M 0,0 H 396 V 130 H 0 Z"
         id="path64" /></clipPath><clipPath
       clipPathUnits="userSpaceOnUse"
       id="clipPath100"><path
         d="M 131,0 H 254 V 129.918 H 131 Z"
         id="path98" /></clipPath><clipPath
       clipPathUnits="userSpaceOnUse"
       id="clipPath110"><path
         d="M 0,0 H 396 V 130 H 0 Z"
         id="path108" /></clipPath><clipPath
       clipPathUnits="userSpaceOnUse"
       id="clipPath132"><path
         d="M 0,0 H 396 V 130 H 0 Z"
         id="path130" /></clipPath></defs><g
     id="g8"
     transform="matrix(1.3333333,0,0,1.3333333,0,8.3305664e-6)"><g
       id="g10" /><g
       id="g12"><g
         id="g14"><g
           id="g16"><g
             id="g18"
             clip-path="url(#clipPath22)"><g
               id="g24"><path
                 d="M 0,0 H 396 V 130 H 0 Z"
                 style="fill:#ffffff;fill-opacity:1;fill-rule:nonzero;stroke:none"
                 id="path26" /></g></g></g></g></g><g
       id="g28"><g
         id="g30"
         clip-path="url(#clipPath34)"><g
           id="g36"><g
             id="g38"><g
               id="g40"
               clip-path="url(#clipPath44)"><g
                 id="g46"><g
                   id="g48"
                   transform="scale(1,-1)"><path
                     d="m 61.418,-64.5 -0.168,1.918 -0.332,1.914 -0.418,1.836 -0.5,1.832 -0.668,1.832 -0.75,1.836 -0.914,1.664 -1,1.668 -1.086,1.582 -1.164,1.586 -1.25,1.414 -1.418,1.336 -1.418,1.332 -1.5,1.168 -1.582,1.082 -1.668,1 -1.75,0.832 -1.75,0.75 -1.832,0.668 -1.832,0.582 -1.918,0.418 -1.918,0.25 -1.914,0.25 H 28.832 L 26.918,-36 25,-36.25 l -1.918,-0.418 -1.832,-0.582 -1.832,-0.668 -1.75,-0.75 -1.75,-0.832 -1.668,-1 -1.582,-1.082 -1.5,-1.168 -1.418,-1.332 -1.418,-1.336 -1.25,-1.414 -1.164,-1.586 -1.086,-1.582 -1,-1.668 -0.914,-1.664 -0.75,-1.836 L 1.5,-57 1,-58.832 0.582,-60.668 0.25,-62.582 0.082,-64.5 0,-66.5 0.082,-68.418 0.25,-70.332 0.582,-72.25 1,-74.082 l 0.5,-1.836 0.668,-1.832 0.75,-1.832 0.914,-1.668 1,-1.668 1.086,-1.582 1.164,-1.582 1.25,-1.418 1.418,-1.332 1.418,-1.336 1.5,-1.164 1.582,-1.086 1.668,-1 1.75,-0.832 1.75,-0.75 1.832,-0.668 1.832,-0.582 1.918,-0.418 1.918,-0.25 1.914,-0.25 h 3.836 l 1.914,0.25 1.918,0.25 1.918,0.418 1.832,0.582 1.832,0.668 1.75,0.75 1.75,0.832 1.668,1 1.582,1.086 1.5,1.164 1.418,1.336 1.418,1.332 1.25,1.418 1.164,1.582 1.086,1.582 1,1.668 0.914,1.668 0.75,1.832 0.668,1.832 0.5,1.836 0.418,1.832 0.332,1.918 0.168,1.914 0.082,1.918"
                     style="fill:none;stroke:#000000;stroke-width:1;stroke-linecap:butt;stroke-linejoin:round;stroke-miterlimit:10;stroke-dasharray:none;stroke-opacity:1"
                     id="path50" /></g><g
                   id="g52"
                   transform="scale(1,-1)"><path
                     d="m 61.5,-66.5 -0.082,2"
                     style="fill:none;stroke:#000000;stroke-width:1;stroke-linecap:butt;stroke-linejoin:round;stroke-miterlimit:10;stroke-dasharray:none;stroke-opacity:1"
                     id="path54" /></g></g></g></g></g></g></g><g
       id="g56"><g
         id="g58"><g
           id="g60"><g
             id="g62"
             clip-path="url(#clipPath66)"><g
               id="g68"><g
                 id="g70"
                 transform="scale(1,-1)"><path
                   d="m 26.918,-36 3,-6.918 -2.086,-0.25 2.918,-23.332 -2.918,23.332 -2.082,-0.25 1.168,7.418"
                   style="fill:#000000;fill-opacity:1;fill-rule:evenodd;stroke:#000000;stroke-width:1;stroke-linecap:butt;stroke-linejoin:round;stroke-miterlimit:10;stroke-dasharray:none;stroke-opacity:1"
                   id="path72" /></g><g
                 id="g74"
                 transform="scale(1,-1)"><path
                   d="m 61.25,-62.668 -7.418,1.168 0.25,-2 -23.332,-3 23.332,3 0.25,-2.082 6.918,2.914"
                   style="fill:#000000;fill-opacity:1;fill-rule:evenodd;stroke:#000000;stroke-width:1;stroke-linecap:butt;stroke-linejoin:round;stroke-miterlimit:10;stroke-dasharray:none;stroke-opacity:1"
                   id="path76" /></g><text
                 transform="translate(31.916796,54.000199)"
                 style="font-variant:normal;font-weight:normal;font-size:10px;font-family:'DejaVu Sans';-inkscape-font-specification:DejaVuSans;writing-mode:lr-tb;fill:#000000;fill-opacity:1;fill-rule:nonzero;stroke:none"
                 id="text80"><tspan
                   x="0"
                   y="0"
                   id="tspan78">v</tspan></text><text
                 transform="translate(37.416796,55.500199)"
                 style="font-variant:normal;font-weight:normal;font-size:7px;font-family:'DejaVu Sans';-inkscape-font-specification:DejaVuSans;writing-mode:lr-tb;fill:#000000;fill-opacity:1;fill-rule:nonzero;stroke:none"
                 id="text84"><tspan
                   x="0"
                   y="0"
                   id="tspan82">1</tspan></text><text
                 transform="translate(45.916796,75.000198)"
                 style="font-variant:normal;font-weight:normal;font-size:10px;font-family:'DejaVu Sans';-inkscape-font-specification:DejaVuSans;writing-mode:lr-tb;fill:#000000;fill-opacity:1;fill-rule:nonzero;stroke:none"
                 id="text88"><tspan
                   x="0"
                   y="0"
                   id="tspan86">v</tspan></text><text
                 transform="translate(51.499996,76.500198)"
                 style="font-variant:normal;font-weight:normal;font-size:7px;font-family:'DejaVu Sans';-inkscape-font-specification:DejaVuSans;writing-mode:lr-tb;fill:#000000;fill-opacity:1;fill-rule:nonzero;stroke:none"
                 id="text92"><tspan
                   x="0"
                   y="0"
                   id="tspan90">2</tspan></text></g></g></g></g></g><g
       id="g94"><g
         id="g96"
         clip-path="url(#clipPath100)"><g
           id="g102"><g
             id="g104"><g
               id="g106"
               clip-path="url(#clipPath110)"><g
                 id="g112"><g
                   id="g114"
                   transform="scale(1,-1)"><path
                     d="m 209.5,-77.918 1.668,3.918 1.5,4 1.5,3.918 1.414,4 1.336,4 1.164,3.914 1.086,3.836 1.082,3.832 0.832,3.75 0.836,3.668 0.664,3.5 0.5,3.414 0.418,3.25 0.332,3.168 0.168,2.918 0.082,2.832 -0.082,2.582 -0.25,2.418 -0.25,2.25 -0.5,2 -0.5,1.75 -0.75,1.582 -0.75,1.336 -0.918,1.082 -1,0.832 -1.164,0.586 -1.25,0.332 -1.25,0.168 -1.418,-0.168 -1.5,-0.418 -1.582,-0.664 -1.668,-0.836 -1.75,-1.164 -1.75,-1.336 -1.832,-1.664 -1.836,-1.836 -1.914,-2 -2,-2.25 -1.918,-2.5 -2,-2.664 -2,-2.836 -2,-3 -1.918,-3.164 -2,-3.25 -1.914,-3.5 -1.918,-3.5 -1.832,-3.668 -1.836,-3.75 -1.75,-3.832 -1.75,-3.918 -1.664,-3.918 -1.5,-4 -1.5,-3.914 -1.418,-4 -1.332,-4 -1.168,-3.918 -1.082,-3.832 -1.086,-3.836 -0.832,-3.75 -0.832,-3.664 -0.668,-3.5 -0.5,-3.418 -0.418,-3.25 -0.332,-3.168 -0.168,-2.914 -0.082,-2.836 0.082,-2.582 0.25,-2.418 0.25,-2.25 0.5,-2 0.5,-1.75 0.75,-1.582 0.75,-1.332 0.918,-1.086 1,-0.832 1.168,-0.582 1.25,-0.336 1.25,-0.164 1.414,0.164 1.5,0.418 1.586,0.668 1.664,0.832 1.75,1.168 1.75,1.332 1.836,1.668 1.832,1.832 1.918,2 2,2.25 1.914,2.5 2,2.668 2,2.832 2,3 1.918,3.168 2,3.25 1.918,3.5 1.914,3.5 1.836,3.664 1.832,3.75 1.75,3.836"
                     style="fill:none;stroke:#000000;stroke-width:1;stroke-linecap:butt;stroke-linejoin:round;stroke-miterlimit:10;stroke-dasharray:none;stroke-opacity:1"
                     id="path116" /></g><g
                   id="g118"
                   transform="scale(1,-1)"><path
                     d="m 207.75,-81.832 1.75,3.914"
                     style="fill:none;stroke:#000000;stroke-width:1;stroke-linecap:butt;stroke-linejoin:round;stroke-miterlimit:10;stroke-dasharray:none;stroke-opacity:1"
                     id="path120" /></g></g></g></g></g></g></g><g
       id="g122"><g
         id="g124"><g
           id="g126"><g
             id="g128"
             clip-path="url(#clipPath132)"><g
               id="g134"><g
                 id="g136"
                 transform="scale(1,-1)"><path
                   d="m 217.918,-3.582 -0.75,-7.5 -1.918,0.832 -22.832,-56.25 22.832,56.25 -1.918,0.75 4.586,5.918"
                   style="fill:#000000;fill-opacity:1;fill-rule:evenodd;stroke:#000000;stroke-width:1;stroke-linecap:butt;stroke-linejoin:round;stroke-miterlimit:10;stroke-dasharray:none;stroke-opacity:1"
                   id="path138" /></g><g
                 id="g140"
                 transform="scale(1,-1)"><path
                   d="m 211.082,-74.082 -5.914,4.664 -0.75,-1.914 -12,4.832 12,-4.832 -0.75,-1.918 7.414,-0.832"
                   style="fill:#000000;fill-opacity:1;fill-rule:evenodd;stroke:#000000;stroke-width:1;stroke-linecap:butt;stroke-linejoin:round;stroke-miterlimit:10;stroke-dasharray:none;stroke-opacity:1"
                   id="path142" /></g><text
                 transform="translate(208.24979,36.500199)"
                 style="font-variant:normal;font-weight:normal;font-size:10px;font-family:'DejaVu Sans';-inkscape-font-specification:DejaVuSans;writing-mode:lr-tb;fill:#000000;fill-opacity:1;fill-rule:nonzero;stroke:none"
                 id="text146"><tspan
                   x="0"
                   y="0"
                   id="tspan144">σ</tspan></text><text
                 transform="translate(214.58338,37.916999)"
                 style="font-variant:normal;font-weight:normal;font-size:7px;font-family:'DejaVu Sans';-inkscape-font-specification:DejaVuSans;writing-mode:lr-tb;fill:#000000;fill-opacity:1;fill-rule:nonzero;stroke:none"
                 id="text150"><tspan
                   x="0"
                   y="0"
                   id="tspan148">1</tspan></text><text
                 transform="translate(219.08338,36.500199)"
                 style="font-variant:normal;font-weight:normal;font-size:10px;font-family:'DejaVu Sans';-inkscape-font-specification:DejaVuSans;writing-mode:lr-tb;fill:#000000;fill-opacity:1;fill-rule:nonzero;stroke:none"
                 id="text154"><tspan
                   x="0"
                   y="0"
                   id="tspan152">u</tspan></text><text
                 transform="translate(225.41658,37.916999)"
                 style="font-variant:normal;font-weight:normal;font-size:7px;font-family:'DejaVu Sans';-inkscape-font-specification:DejaVuSans;writing-mode:lr-tb;fill:#000000;fill-opacity:1;fill-rule:nonzero;stroke:none"
                 id="text158"><tspan
                   x="0"
                   y="0"
                   id="tspan156">1</tspan></text><text
                 transform="translate(192.49978,79.333398)"
                 style="font-variant:normal;font-weight:normal;font-size:10px;font-family:'DejaVu Sans';-inkscape-font-specification:DejaVuSans;writing-mode:lr-tb;fill:#000000;fill-opacity:1;fill-rule:nonzero;stroke:none"
                 id="text162"><tspan
                   x="0"
                   y="0"
                   id="tspan160">σ</tspan></text><text
                 transform="translate(198.83337,80.833398)"
                 style="font-variant:normal;font-weight:normal;font-size:7px;font-family:'DejaVu Sans';-inkscape-font-specification:DejaVuSans;writing-mode:lr-tb;fill:#000000;fill-opacity:1;fill-rule:nonzero;stroke:none"
                 id="text166"><tspan
                   x="0"
                   y="0"
                   id="tspan164">2</tspan></text><text
                 transform="translate(203.33337,79.333398)"
                 style="font-variant:normal;font-weight:normal;font-size:10px;font-family:'DejaVu Sans';-inkscape-font-specification:DejaVuSans;writing-mode:lr-tb;fill:#000000;fill-opacity:1;fill-rule:nonzero;stroke:none"
                 id="text170"><tspan
                   x="0"
                   y="0"
                   id="tspan168">u</tspan></text><text
                 transform="translate(209.66657,80.833398)"
                 style="font-variant:normal;font-weight:normal;font-size:7px;font-family:'DejaVu Sans';-inkscape-font-specification:DejaVuSans;writing-mode:lr-tb;fill:#000000;fill-opacity:1;fill-rule:nonzero;stroke:none"
                 id="text174"><tspan
                   x="0"
                   y="0"
                   id="tspan172">2</tspan></text><g
                 id="g176"
                 transform="scale(1,-1)"><path
                   d="M 379.668,-3.582 378.918,-11 377,-10.25 354.168,-66.5 377,-10.25 l -1.918,0.75 4.586,5.918"
                   style="fill:#000000;fill-opacity:1;fill-rule:evenodd;stroke:#000000;stroke-width:1;stroke-linecap:butt;stroke-linejoin:round;stroke-miterlimit:10;stroke-dasharray:none;stroke-opacity:1"
                   id="path178" /></g><g
                 id="g180"
                 transform="scale(1,-1)"><path
                   d="m 328.668,-129.332 4.582,5.914 -1.918,0.75 22.836,56.168 -22.836,-56.168 -1.914,0.75 -0.75,-7.414"
                   style="fill:#000000;fill-opacity:1;fill-rule:evenodd;stroke:#000000;stroke-width:1;stroke-linecap:butt;stroke-linejoin:round;stroke-miterlimit:10;stroke-dasharray:none;stroke-opacity:1"
                   id="path182" /></g><text
                 transform="translate(369.99979,36.500199)"
                 style="font-variant:normal;font-weight:normal;font-size:10px;font-family:'DejaVu Sans';-inkscape-font-specification:DejaVuSans;writing-mode:lr-tb;fill:#000000;fill-opacity:1;fill-rule:nonzero;stroke:none"
                 id="text186"><tspan
                   x="0"
                   y="0"
                   id="tspan184">σ</tspan></text><text
                 transform="translate(376.33338,37.916999)"
                 style="font-variant:normal;font-weight:normal;font-size:7px;font-family:'DejaVu Sans';-inkscape-font-specification:DejaVuSans;writing-mode:lr-tb;fill:#000000;fill-opacity:1;fill-rule:nonzero;stroke:none"
                 id="text190"><tspan
                   x="0"
                   y="0"
                   id="tspan188">1</tspan></text><text
                 transform="translate(380.83338,36.500199)"
                 style="font-variant:normal;font-weight:normal;font-size:10px;font-family:'DejaVu Sans';-inkscape-font-specification:DejaVuSans;writing-mode:lr-tb;fill:#000000;fill-opacity:1;fill-rule:nonzero;stroke:none"
                 id="text194"><tspan
                   x="0"
                   y="0"
                   id="tspan192">u</tspan></text><text
                 transform="translate(387.16658,37.916999)"
                 style="font-variant:normal;font-weight:normal;font-size:7px;font-family:'DejaVu Sans';-inkscape-font-specification:DejaVuSans;writing-mode:lr-tb;fill:#000000;fill-opacity:1;fill-rule:nonzero;stroke:none"
                 id="text198"><tspan
                   x="0"
                   y="0"
                   id="tspan196">1</tspan></text><text
                 transform="translate(344.41658,100.0002)"
                 style="font-variant:normal;font-weight:normal;font-size:10px;font-family:'DejaVu Sans';-inkscape-font-specification:DejaVuSans;writing-mode:lr-tb;fill:#000000;fill-opacity:1;fill-rule:nonzero;stroke:none"
                 id="text202"><tspan
                   x="0 8.7399998"
                   y="0"
                   id="tspan200">−σ</tspan></text><text
                 transform="translate(359.49978,101.5002)"
                 style="font-variant:normal;font-weight:normal;font-size:7px;font-family:'DejaVu Sans';-inkscape-font-specification:DejaVuSans;writing-mode:lr-tb;fill:#000000;fill-opacity:1;fill-rule:nonzero;stroke:none"
                 id="text206"><tspan
                   x="0"
                   y="0"
                   id="tspan204">1</tspan></text><text
                 transform="translate(363.99978,100.0002)"
                 style="font-variant:normal;font-weight:normal;font-size:10px;font-family:'DejaVu Sans';-inkscape-font-specification:DejaVuSans;writing-mode:lr-tb;fill:#000000;fill-opacity:1;fill-rule:nonzero;stroke:none"
                 id="text210"><tspan
                   x="0"
                   y="0"
                   id="tspan208">u</tspan></text><text
                 transform="translate(370.33337,101.5002)"
                 style="font-variant:normal;font-weight:normal;font-size:7px;font-family:'DejaVu Sans';-inkscape-font-specification:DejaVuSans;writing-mode:lr-tb;fill:#000000;fill-opacity:1;fill-rule:nonzero;stroke:none"
                 id="text214"><tspan
                   x="0"
                   y="0"
                   id="tspan212">1</tspan></text></g></g></g></g></g></g></svg>
